<?xml version="1.0" encoding="UTF-8" standalone="no"?>
<svg width="47px" height="31px" viewBox="0 0 47 31" version="1.1" xmlns="http://www.w3.org/2000/svg" xmlns:xlink="http://www.w3.org/1999/xlink" xmlns:sketch="http://www.bohemiancoding.com/sketch/ns">
    <!-- Generator: bin/sketchtool 1.4 (311) - http://www.bohemiancoding.com/sketch -->
    <title>wifi_logo@3x</title>
    <desc>Created with bin/sketchtool.</desc>
    <defs></defs>
    <g id="Page-1" stroke="none" stroke-width="1" fill="none" fill-rule="evenodd" sketch:type="MSPage">
        <g id="Mobile-Portrait" sketch:type="MSArtboardGroup" transform="translate(-282.000000, -12.000000)" fill="#FFFFFF">
            <g id="wifi_logo" sketch:type="MSLayerGroup" transform="translate(282.000000, 12.000000)">
                <path d="M36,13 L39,13 L39,20 L36,20 L36,13 Z" id="Fill-1" sketch:type="MSShapeGroup"></path>
                <path d="M39,11.5 C39,12.3284971 38.3285683,13 37.4998917,13 C36.6714317,13 36,12.3284971 36,11.5 C36,10.6717544 36.6714317,10 37.4998917,10 C38.3285683,10 39,10.6717544 39,11.5" id="Fill-2" sketch:type="MSShapeGroup"></path>
                <path d="M26,11 L34,11 L34,13.3682486 L28.5772977,13.3682486 L28.5772977,15.6051827 L33.4649977,15.6051827 L33.4649977,17.947212 L28.5772977,17.947212 L28.5772977,21 L26,21 L26,11" id="Fill-3" sketch:type="MSShapeGroup"></path>
                <path d="M43.4107475,6.2196593 L43,6.2196593 L43,6 L44,6 L44,6.2196593 L43.5871088,6.2196593 L43.5871088,8 L43.4107475,8 L43.4107475,6.2196593" id="Fill-4" sketch:type="MSShapeGroup"></path>
                <path d="M46.7033275,7.12157444 C46.6890225,6.84287377 46.6714004,6.50745953 46.6745102,6.25817374 L46.6658028,6.25817374 C46.5990463,6.49264628 46.5173629,6.74193207 46.4186794,7.01788171 L46.0724578,7.9881494 L45.8808956,7.9881494 L45.5639059,7.0356576 C45.4708199,6.75378267 45.3922463,6.49560893 45.3373069,6.25817374 L45.3312947,6.25817374 C45.3254898,6.50745953 45.3109775,6.84287377 45.2935628,7.1425246 L45.2413185,8 L45,8 L45.1366228,6 L45.4594174,6 L45.7936146,6.96730505 C45.8748834,7.21383981 45.9418472,7.43328748 45.991189,7.64109618 L45.9998963,7.64109618 C46.0494454,7.43921278 46.1191044,7.21955349 46.2063854,6.96730505 L46.5553022,6 L46.8778895,6 L47,8 L46.7530839,8 L46.7033275,7.12157444" id="Fill-5" sketch:type="MSShapeGroup"></path>
                <path d="M36.7004414,5.8482175 L33.7958114,5.8482175 C31.0328039,2.28570538 26.7771831,0 22.0001052,0 C17.2228169,0 12.9674065,2.28570538 10.204399,5.8482175 L7.29934813,5.8482175 C3.26805075,5.8482175 0,9.18450087 0,13.3002315 L0,18.2168935 C0,22.3326241 3.26805075,25.669552 7.29934813,25.669552 L10.6244267,25.669552 C13.3893281,28.9338633 17.4585037,31 22.0001052,31 C26.5414963,31 30.6108823,28.9338633 33.3757837,25.669552 L36.7004414,25.669552 C40.7319492,25.669552 44,22.3326241 44,18.2168935 L44,13.3002315 C44,9.18450087 40.7319492,5.8482175 36.7004414,5.8482175 L36.7004414,5.8482175 Z M13.1416465,20.4944349 L10.6578858,20.4944349 L9.56804454,14.3873326 L8.50345543,20.4944349 L6.04494694,20.4944349 L3.71312012,10.5835528 L6.50116935,10.5835528 L7.31218465,16.3795637 L8.37677375,10.5835528 L10.8352822,10.5835528 L11.8744088,16.3795637 L12.7106762,10.5575569 L15.4482211,10.5575569 L13.1416465,20.4944349 L13.1416465,20.4944349 Z M16.6142397,13.2744504 L19.123463,13.2744504 L19.123463,20.4422283 L16.6142397,20.4422283 L16.6142397,13.2744504 Z M17.8941035,12.5500028 C17.0891908,12.5500028 16.4366329,11.9765891 16.4366329,11.269114 C16.4366329,10.5618537 17.0891908,9.98822527 17.8941035,9.98822527 C18.6988058,9.98822527 19.3515742,10.5618537 19.3515742,11.269114 C19.3515742,11.9765891 18.6988058,12.5500028 17.8941035,12.5500028 L17.8941035,12.5500028 Z M42.4158476,18.3722244 C42.4158476,23.4953497 36.8751022,24.190364 36.8751022,24.190364 L19.8618783,24.2045436 C23.1568647,21.254976 22.8997135,18.1653314 22.8997135,18.1653314 L22.8997135,13.6108932 C22.8997135,7.60755967 28.8306049,7.4006667 28.8306049,7.4006667 L36.6368902,7.4006667 C41.7569766,7.4006667 42.4158476,13.2486694 42.4158476,13.2486694 C42.4158476,13.2486694 42.4158476,13.2486694 42.4158476,18.3722244 L42.4158476,18.3722244 Z" id="Fill-6" sketch:type="MSShapeGroup"></path>
            </g>
        </g>
    </g>
</svg>